<?xml version="1.0" standalone="no"?>
<!DOCTYPE svg PUBLIC "-//W3C//DTD SVG 1.1//EN" "http://www.w3.org/Graphics/SVG/1.1/DTD/svg11.dtd" >
<svg xmlns="http://www.w3.org/2000/svg">
<metadata></metadata>
<defs>
<font id="ssb" horiz-adv-x="1499" >
<font-face units-per-em="2048" ascent="1638" descent="-410" />
<missing-glyph horiz-adv-x="317" />
<glyph unicode="&#xfb01;" horiz-adv-x="1239" d="M10 858v219h117v68q0 313 367 313q104 0 188 -31v-196h-55q-74 0 -104.5 -19.5t-30.5 -81.5v-53h559q55 0 55 -108v-711q0 -16 17.5 -33.5t33.5 -17.5h66v-207h-557v207h73v651h-247v-651h73v-207h-549v207h62q16 0 32.5 17.5t16.5 33.5v600h-117zM737 1317 q0 76 53.5 125t131 49t129 -49t51.5 -125t-51.5 -125t-129 -49t-131 49t-53.5 125z" />
<glyph unicode="&#xfb02;" horiz-adv-x="1247" d="M10 858v219h117v68q0 313 383 313q104 0 199 -24h340q57 0 57 -78v-1098q0 -16 17.5 -33.5t33.5 -17.5h74v-207h-565v207h75v1022h-114q-74 0 -104.5 -18.5t-30.5 -80.5v-53h176v-219h-176v-651h73v-207h-549v207h62q16 0 32.5 17.5t16.5 33.5v600h-117z" />
<glyph unicode="&#xfb03;" horiz-adv-x="1853" d="M10 858v219h117v60q0 309 358 309q113 0 193 -31v-192h-57q-68 0 -98.5 -19.5t-30.5 -81.5v-45h249v68q0 313 367 313q102 0 186 -31v-196h-53q-74 0 -104.5 -19.5t-30.5 -81.5v-53h559q55 0 55 -108v-711q0 -16 16.5 -33.5t32.5 -17.5h68v-207h-557v207h74v651h-248 v-651h74v-207h-514v207h75v651h-249v-651h73v-207h-549v207h62q16 0 32.5 17.5t16.5 33.5v600h-117zM1352 1317q0 76 52 125t130 49t130 -49t52 -125t-52 -125t-130 -49t-130 49t-52 125z" />
<glyph unicode="&#xfb04;" horiz-adv-x="1861" d="M10 858v219h117v60q0 309 358 309q113 0 193 -31v-192h-57q-68 0 -98.5 -19.5t-30.5 -81.5v-45h249v68q0 313 383 313q100 0 199 -24h340q57 0 57 -78v-1098q0 -16 16.5 -33.5t32.5 -17.5h74v-207h-563v207h76v1022h-115q-74 0 -104.5 -18.5t-30.5 -80.5v-53h176v-219 h-176v-651h74v-207h-514v207h75v651h-249v-651h73v-207h-549v207h62q16 0 32.5 17.5t16.5 33.5v600h-117z" />
<glyph horiz-adv-x="2048" />
<glyph horiz-adv-x="2048" />
<glyph unicode="&#xd;" horiz-adv-x="681" />
<glyph unicode=" "  horiz-adv-x="317" />
<glyph unicode="&#x09;" horiz-adv-x="317" />
<glyph unicode="&#xa0;" horiz-adv-x="317" />
<glyph unicode="!" horiz-adv-x="456" d="M39 1219v215h377v-215l-101 -785h-176zM41 166q0 76 54.5 128t132 52t132 -52t54.5 -128t-54.5 -127t-132 -51t-132 51t-54.5 127z" />
<glyph unicode="&#x22;" horiz-adv-x="802" d="M39 1260v174h328v-174l-76 -326h-176zM436 1260v174h328v-174l-76 -326h-176z" />
<glyph unicode="#" horiz-adv-x="1003" d="M25 381v274h178l24 172h-137v275h178l47 332h209l-49 -332h162l47 332h209l-49 -332h137v-275h-176l-27 -172h137v-274h-176l-55 -381h-209l55 381h-159l-56 -381h-209l56 381h-137zM410 655h161l25 172h-160z" />
<glyph unicode="$" horiz-adv-x="1099" d="M23 45v346h213q31 -82 84 -120t169 -38q100 0 155.5 42t55.5 116q0 76 -57 110t-211 72q-96 25 -161.5 53.5t-125 77t-89 125t-29.5 181.5q0 188 111.5 294.5t312.5 129.5v137h221v-135q180 -8 346 -56v-321h-205q-31 74 -83 113.5t-152 39.5q-213 0 -213 -149 q0 -70 53 -102.5t186 -67.5q252 -66 356.5 -157t104.5 -290q0 -195 -110.5 -307t-321.5 -137v-211h-221v205q-164 4 -389 49z" />
<glyph unicode="%" horiz-adv-x="1650" d="M23 1062.5q0 188.5 105 288t263 99.5t263.5 -99.5t105.5 -288t-106.5 -288.5t-262.5 -100q-158 0 -263 100t-105 288.5zM213 -70l1010 1563h213l-1010 -1563h-213zM285 1059q0 -215 106.5 -215t106.5 215q0 219 -106.5 219t-106.5 -219zM893 370.5q0 188.5 105.5 289 t263.5 100.5q156 0 261 -100.5t105 -289t-105 -287.5t-261 -99q-158 0 -263.5 99t-105.5 287.5zM1153 367q0 -215 109 -215q104 0 104 215q0 219 -104 219q-109 0 -109 -219z" />
<glyph unicode="&#x26;" horiz-adv-x="1474" d="M25 401q0 272 299 404q-82 117 -82 262q0 176 120.5 280.5t331.5 104.5q119 0 178 -18h281v-390h-254l-33 144q-39 16 -92 16q-78 0 -110.5 -33.5t-32.5 -101.5q0 -55 26.5 -97t87.5 -104l295 -299q49 135 62 283h299v-164q-76 -201 -156 -328l105 -104q55 -49 84 -49h16 v-207h-358l-97 98q-173 -114 -417 -114q-268 0 -410.5 110.5t-142.5 306.5zM408 449q0 -100 58 -162t173 -62q100 0 182 58l-346 354q-68 -72 -67 -188z" />
<glyph unicode="'" horiz-adv-x="417" d="M39 1260v174h340v-174l-80 -326h-180z" />
<glyph unicode="(" horiz-adv-x="643" d="M27 719q0 180 39.5 325.5t108.5 238.5t147.5 150.5t169.5 84.5h131v-195q-276 -98 -277 -604q0 -532 277 -631v-188h-131q-195 59 -330 259.5t-135 559.5z" />
<glyph unicode=")" horiz-adv-x="643" d="M20 88q279 100 279 631q0 504 -279 604v195h132q195 -57 329.5 -256t134.5 -543q0 -186 -39.5 -336t-108.5 -245t-147.5 -153.5t-168.5 -84.5h-132v188z" />
<glyph unicode="*" horiz-adv-x="768" d="M29 944l67 88l266 35l-266 35l-67 90l71 119l111 -17l162 -207l-103 242l41 105h144l41 -105l-101 -242l162 207l113 17l67 -119l-65 -90l-264 -35l264 -35l65 -88l-65 -119l-113 15l-164 207l101 -240l-41 -105h-144l-41 105l103 240l-164 -207l-113 -15z" />
<glyph unicode="+" horiz-adv-x="1048" d="M27 573v269h354v377h291v-377h350v-269h-350v-376h-291v376h-354z" />
<glyph unicode="," horiz-adv-x="434" d="M31 -92q129 23 129 84q0 18 -7.5 27.5t-30 21.5t-30.5 18q-61 45 -61 129q0 70 50 114t128 44q84 0 140.5 -56.5t56.5 -160.5q0 -331 -375 -362v141z" />
<glyph unicode="-" horiz-adv-x="585" d="M45 485v254h496v-254h-496z" />
<glyph unicode="." horiz-adv-x="434" d="M33 166q0 76 53 128t131 52t132 -52t54 -128t-54 -127t-132 -51t-131 51t-53 127z" />
<glyph unicode="/" horiz-adv-x="708" d="M-14 -100l495 1618h238l-496 -1618h-237z" />
<glyph unicode="0" horiz-adv-x="1355" d="M29 717q0 352 186 543.5t462.5 191.5t462 -191.5t185.5 -543.5t-184.5 -543.5t-463 -191.5t-463.5 191.5t-185 543.5zM430 711q0 -254 62.5 -369t185.5 -115q248 0 248 484q0 254 -62.5 366.5t-185.5 112.5t-185.5 -112.5t-62.5 -366.5z" />
<glyph unicode="1" horiz-adv-x="806" d="M20 1042v215l316 177h278v-1166q0 -18 18.5 -39.5t37.5 -21.5h116v-207h-759v207h139q18 0 37.5 21.5t19.5 39.5v838l-129 -64h-74z" />
<glyph unicode="2" horiz-adv-x="1103" d="M31 0v150q0 96 27.5 177t85 148.5t111.5 114.5t138 106q12 8 49 34t48.5 35t42 31.5t42 34l33 33t30.5 36.5t20.5 35.5t15.5 40t4 42.5q0 80 -41 125t-119 45q-154 0 -225 -144h-203v330q225 78 465 78q520 0 520 -414q0 -76 -24.5 -142.5t-57 -112.5t-91 -94 t-102.5 -75.5t-116 -68.5q-139 -80 -218 -142.5t-95 -132.5h413l27 138h238v-408h-1018z" />
<glyph unicode="3" horiz-adv-x="1079" d="M20 53v299h207q68 -123 222 -123q90 0 147 50.5t57 142.5q0 188 -221 188h-117v228h103q233 0 233 186q0 166 -172 166q-141 0 -213 -113h-196v301q215 74 450 74q508 0 508 -375q0 -274 -301 -336v-8q324 -45 324 -336q2 -199 -158 -307t-430 -108q-254 0 -443 71z" />
<glyph unicode="4" horiz-adv-x="1155" d="M20 356v277l611 801h364v-844h138v-234h-138v-88q0 -18 18.5 -39.5t39.5 -21.5h80v-207h-664v207h86q18 0 37.5 21.5t19.5 39.5v88h-592zM256 590h365v483h-9l-356 -475v-8z" />
<glyph unicode="5" horiz-adv-x="1073" d="M20 66v292h207q63 -129 222 -129q92 0 150 56.5t58 167.5q0 106 -54 161.5t-136 55.5q-115 0 -195 -84h-221v848h928v-371h-238l-24 96h-395v-323h6q98 78 272 77q197 0 320.5 -113.5t123.5 -336.5q0 -229 -153.5 -355t-427.5 -126q-240 0 -443 84z" />
<glyph unicode="6" horiz-adv-x="1224" d="M29 686q0 369 191.5 567.5t549.5 198.5q199 0 346 -37v-295h-198q-72 72 -175 72q-289 0 -313 -412q121 131 332 131q195 0 314.5 -112.5t119.5 -317.5q0 -223 -152.5 -361t-410.5 -138q-276 0 -440 177t-164 527zM426 623q4 -221 49.5 -315.5t149.5 -94.5q184 0 184 252 q0 213 -184 213q-104 0 -199 -55z" />
<glyph unicode="7" horiz-adv-x="1058" d="M20 979v455h1018v-306l-479 -1128h-389v156l614 987v8h-497l-29 -172h-238z" />
<glyph unicode="8" horiz-adv-x="1236" d="M29 408q0 264 295 354v8q-238 78 -238 299q0 176 148.5 279.5t384 103.5t382 -103.5t146.5 -279.5q0 -223 -236 -299v-8q295 -90 295 -354q0 -201 -153.5 -313.5t-434.5 -112.5q-283 0 -436 112.5t-153 313.5zM412 434q0 -96 51 -155.5t155 -59.5q100 0 151.5 59.5 t51.5 155.5q0 98 -51 157.5t-152 59.5q-104 0 -155 -59.5t-51 -157.5zM455 1036q-1 -170 163 -170q160 0 160 170q0 84 -41 130t-119 46q-80 0 -121.5 -46t-41.5 -130z" />
<glyph unicode="9" horiz-adv-x="1224" d="M27 958q0 219 153.5 356.5t409.5 137.5q283 0 443.5 -172t160.5 -532q0 -375 -189 -570.5t-554 -195.5q-225 0 -367 47v288h195q66 -82 198 -81q291 0 316 411q-125 -129 -328 -129q-197 0 -317.5 115t-120.5 325zM414 965q0 -213 184 -213q102 0 197 53 q-4 225 -49.5 318.5t-147.5 93.5q-184 0 -184 -252z" />
<glyph unicode=":" horiz-adv-x="434" d="M33 164q0 74 53 126t131 52q76 0 129 -52t53 -126t-53 -125t-129 -51q-78 0 -131 50t-53 126zM33 750q0 76 53 127t131 51q76 0 129 -51.5t53 -126.5q0 -74 -53 -125.5t-129 -51.5q-78 0 -131 51.5t-53 125.5z" />
<glyph unicode=";" horiz-adv-x="434" d="M29 -90q129 18 129 82q0 18 -7.5 27.5t-30 21.5t-30.5 18q-61 45 -61 127q0 68 50 112t126 44q84 0 139 -55.5t55 -157.5q1 -329 -370 -362v143zM33 750q0 76 53 127t131 51q76 0 129 -51.5t53 -126.5q0 -74 -53 -125.5t-129 -51.5q-78 0 -131 51.5t-53 125.5z" />
<glyph unicode="&#x3c;" horiz-adv-x="925" d="M27 563v223l780 392h86v-267l-498 -231v-6l498 -238v-264h-86z" />
<glyph unicode="=" horiz-adv-x="1001" d="M37 295v264h928v-264h-928zM37 719v264h928v-264h-928z" />
<glyph unicode="&#x3e;" horiz-adv-x="925" d="M35 172v264l495 234v6l-495 237v265h84l780 -394v-221l-780 -391h-84z" />
<glyph unicode="?" horiz-adv-x="921" d="M23 1085v297q197 70 395 70q231 0 355 -100.5t124 -284.5q0 -121 -55.5 -195.5t-167.5 -152.5q-74 -53 -97.5 -71.5t-62.5 -57.5t-49 -74t-6 -82h-215q-23 123 2.5 208t118.5 181l23.5 23.5t28.5 31t26.5 31t27.5 37t19.5 37t16.5 41.5t5 43q0 63 -31.5 99t-89.5 36 q-100 0 -162 -117h-206zM182 166q0 76 54.5 128t132 52t131 -52t53.5 -128t-53.5 -127t-131 -51t-132 51t-54.5 127z" />
<glyph unicode="@" horiz-adv-x="1775" d="M39 492q0 205 80 374.5t209 276t282.5 165t309.5 58.5q213 0 397 -77t303 -233.5t119 -365.5q0 -272 -146.5 -413.5t-365.5 -141.5q-227 0 -279 141q-102 -137 -256 -137q-119 0 -188.5 72t-69.5 201q0 221 137 385q121 137 310 137q129 0 209 -84q80 72 135 72h143 l-115 -506q-29 -129 52 -129q106 0 178.5 104.5t72.5 298.5q0 244 -179 384t-457 140q-133 0 -253 -45t-217.5 -131t-155.5 -227t-58 -319q0 -311 184 -463t481 -152q295 0 485 123h103v-119q-100 -72 -257 -113.5t-331 -41.5q-166 0 -316.5 45t-274.5 135t-197.5 240.5 t-73.5 345.5zM733 412q0 -45 23.5 -71t58.5 -26q59 0 119 60l86 364q-37 12 -80 13q-92 0 -149.5 -99.5t-57.5 -240.5z" />
<glyph unicode="A" horiz-adv-x="1513" d="M16 0v207h39q55 0 78 63l318 889q8 23 -3.5 41.5t-33.5 18.5h-90v215h682l383 -1176q6 -20 26.5 -35.5t38.5 -15.5h43v-207h-668v207h177l-74 233h-465l-16 -49q-23 -62 -23 -104q0 -18 4 -32q14 -48 86 -48h72v-207h-574zM535 637h337l-157 506h-4z" />
<glyph unicode="B" horiz-adv-x="1292" d="M20 0v211h70q20 0 40 21.5t20 39.5v891q0 18 -19.5 40t-40.5 22h-70v209h635q565 0 566 -369q0 -131 -73 -204t-218 -103v-8q340 -51 340 -334q0 -205 -159 -310.5t-443 -105.5h-648zM535 221h114q123 0 174 53.5t51 161.5q0 104 -50 152.5t-175 48.5h-114v-416zM535 844 h102q109 0 157 45t48 139q0 92 -47 136t-158 44h-102v-364z" />
<glyph unicode="C" horiz-adv-x="1298" d="M29 709q0 354 188.5 548.5t517.5 194.5q137 0 244 -18h276v-486h-254l-38 223q-72 27 -179 27q-158 0 -250 -114.5t-92 -358.5q0 -492 330 -492q182 0 309 160h187v-260q-216 -151 -525 -151q-342 0 -528 187t-186 540z" />
<glyph unicode="D" horiz-adv-x="1449" d="M20 0v207h70q20 0 40 21.5t20 39.5v891q0 18 -19.5 39t-40.5 21h-70v215h625q387 0 581.5 -173.5t194.5 -535.5q0 -358 -199.5 -541.5t-586.5 -183.5h-615zM539 217h96q195 0 290 121t95 377q0 254 -94.5 371.5t-290.5 117.5h-96v-987z" />
<glyph unicode="E" horiz-adv-x="1241" d="M20 0v207h70q20 0 40 21.5t20 39.5v891q0 18 -19.5 39t-40.5 21h-70v215h1178v-426h-229l-35 194h-395v-364h190l16 125h209v-469h-209l-16 127h-190v-398h405l33 226h242v-449h-1199z" />
<glyph unicode="F" horiz-adv-x="1208" d="M20 0v207h70q20 0 40 21.5t20 39.5v891q0 18 -19.5 39t-40.5 21h-70v215h1166v-443h-230l-34 211h-383v-401h186l16 135h211v-498h-211l-16 142h-186v-373h166v-207h-685z" />
<glyph unicode="G" horiz-adv-x="1384" d="M29 708.5q0 354.5 189.5 549t522.5 194.5q131 0 234 -18h274v-471h-254l-39 208q-72 27 -174 27q-158 0 -249 -114.5t-91 -358.5q0 -500 303 -500q90 0 152 19v252h-123v209h598v-211h-41q-20 0 -38.5 -21.5t-18.5 -40.5v-432h-199q-18 43 -57 43q-123 -61 -297 -61 q-336 0 -514 186t-178 540.5z" />
<glyph unicode="H" horiz-adv-x="1521" d="M20 0v207h70q20 0 40 21.5t20 39.5v891q0 18 -19.5 39t-40.5 21h-70v215h664v-215h-145v-385h444v385h-145v215h663v-215h-69q-20 0 -40 -20.5t-20 -39.5v-891q0 -18 19.5 -39.5t40.5 -21.5h69v-207h-663v207h145v418h-444v-418h145v-207h-664z" />
<glyph unicode="I" horiz-adv-x="712" d="M20 0v207h84q18 0 38 21.5t20 39.5v891q0 18 -18.5 39t-39.5 21h-84v215h674v-215h-86q-18 0 -36.5 -20.5t-18.5 -39.5v-891q0 -18 18.5 -39.5t36.5 -21.5h86v-207h-674z" />
<glyph unicode="J" horiz-adv-x="1054" d="M23 57v260h196q55 -88 152 -88q131 0 131 152v778q0 18 -18.5 39t-37.5 21h-90v215h678v-215h-84q-20 0 -37.5 -19.5t-17.5 -40.5v-764q0 -213 -123 -312t-383 -99q-205 0 -366 73z" />
<glyph unicode="K" horiz-adv-x="1462" d="M20 0v207h70q20 0 40 21.5t20 39.5v891q0 18 -19.5 39t-40.5 21h-70v215h646v-215h-127v-467l340 350q44 45 44 75q1 5 -1 10q-8 32 -66 32h-27v215h601v-215h-41q-31 0 -95 -56q-8 -6 -12 -10l-324 -317l375 -574q41 -55 68 -55h41v-207h-496v184l-264 418l-143 -133 v-262h129v-207h-648z" />
<glyph unicode="L" horiz-adv-x="1198" d="M20 0v207h70q20 0 40 21.5t20 39.5v891q0 18 -19.5 39t-40.5 21h-70v215h699v-215h-180v-996h360l33 279h246v-502h-1158z" />
<glyph unicode="M" horiz-adv-x="1853" d="M20 0v207h70q20 0 40 21.5t20 39.5v891q0 18 -19.5 39t-40.5 21h-70v215h680l224 -832h6l225 832h678v-215h-72q-20 0 -38.5 -20.5t-18.5 -39.5v-891q0 -18 19.5 -39.5t37.5 -21.5h72v-207h-643v207h129v936h-6l-318 -1143h-245l-314 1143h-6v-936h135v-207h-545z" />
<glyph unicode="N" horiz-adv-x="1470" d="M20 0v207h70q20 0 40 21.5t20 39.5v891q0 18 -19.5 39t-40.5 21h-70v215h510l508 -840h6v625h-145v215h551v-215h-66q-20 0 -38.5 -20.5t-18.5 -39.5v-1159h-334l-557 918h-6v-711h150v-207h-560z" />
<glyph unicode="O" d="M29 717q0 342 206.5 538.5t514 196.5t513 -196.5t205.5 -538.5q0 -344 -204.5 -539.5t-514 -195.5t-515 195.5t-205.5 539.5zM430 710.5q0 -235.5 87.5 -359.5t232.5 -124q143 0 231 124t88 360q0 233 -88 356t-231 123q-147 0 -233.5 -122t-86.5 -357.5z" />
<glyph unicode="P" horiz-adv-x="1286" d="M20 0v207h70q20 0 40 21.5t20 39.5v891q0 18 -19.5 39t-40.5 21h-70v215h652q293 0 442.5 -110t149.5 -345q0 -453 -607 -453h-118v-319h166v-207h-685zM532 737h119q121 0 169 61.5t48 174.5q0 111 -48 171t-169 60h-119v-467z" />
<glyph unicode="Q" d="M235.5 1255.5q206.5 196.5 514 196.5t513 -196.5t205.5 -538.5q0 -449 -368 -582v-6q297 -45 418 -174v-203h-299q-119 184 -480 230q-710 86 -710 733q0 344 206.5 540.5zM430 710.5q0 -235.5 87.5 -359.5t232.5 -124q143 0 231 124t88 360q0 233 -88 356t-231 123 q-147 0 -233.5 -122t-86.5 -357.5z" />
<glyph unicode="R" horiz-adv-x="1396" d="M20 0v207h70q20 0 40 21.5t20 39.5v891q0 18 -19.5 39t-40.5 21h-70v215h660q586 0 586 -406q0 -135 -75 -213t-230 -113v-8q121 -25 180 -89t100 -224l31 -123q14 -51 51 -51h53v-207h-458l-60 389q-14 113 -58 155t-151 42h-110v-379h157v-207h-676zM532 784h123 q125 0 171 52.5t46 158.5q0 104 -46 156.5t-171 52.5h-123v-420z" />
<glyph unicode="S" horiz-adv-x="1107" d="M27 0v440h260l32 -202q63 -23 173 -23q215 0 215 170q0 29 -7.5 51.5t-27 40t-33.5 29.5t-51 25.5t-56.5 19.5t-70.5 19.5t-72 19.5q-168 47 -258 142t-90 282q0 217 137 327.5t373 110.5q150 0 237 -18h242v-402h-256l-33 172q-68 23 -153 23q-207 0 -207 -158 q0 -43 19.5 -73.5t51 -49t75.5 -34t94 -27.5q18 -4 26 -6q233 -61 329.5 -152.5t96.5 -282.5q0 -462 -545 -462q-119 0 -229 18h-272z" />
<glyph unicode="T" horiz-adv-x="1335" d="M29 926v508h1278v-508h-236l-29 284h-180v-942q0 -18 19.5 -39.5t38.5 -21.5h81v-207h-667v207h80q20 0 38.5 21.5t18.5 39.5v942h-178l-27 -284h-237z" />
<glyph unicode="U" horiz-adv-x="1472" d="M20 1219v215h670v-215h-153v-705q0 -158 61 -221.5t188 -63.5q129 0 190.5 63.5t61.5 221.5v705h-151v215h565v-215h-66q-20 0 -38.5 -20.5t-18.5 -39.5v-622q0 -553 -586 -553q-295 0 -446.5 140t-151.5 413v622q0 18 -18 39t-39 21h-68z" />
<glyph unicode="V" horiz-adv-x="1482" d="M20 1219v215h644v-215h-156l272 -848h6l234 702q14 41 14 71q0 74 -88 75h-59v215h575v-215h-35q-55 0 -77 -62l-422 -1157h-393l-410 1169q-18 49 -64 50h-41z" />
<glyph unicode="W" horiz-adv-x="2033" d="M20 1219v215h633v-215h-153l172 -760h4l239 975h283l238 -975h4l149 614q11 41 11 70q0 24 -7 40q-16 36 -77 36h-58v215h555v-215h-24q-25 0 -47.5 -18.5t-30.5 -43.5l-299 -1157h-402l-200 819h-4l-201 -819h-402l-288 1169q-4 20 -23.5 35t-40.5 15h-31z" />
<glyph unicode="X" horiz-adv-x="1402" d="M20 0v207h50q49 0 73 39l320 471l-311 444q-41 57 -80 58h-52v215h644v-207h-115l219 -320l127 201q25 43 25 70q0 11 -4 20q-14 29 -62 29h-37v207h565v-215h-53q-47 0 -74 -41l-307 -461l316 -453q39 -57 88 -57h30v-207h-645v201h129l-231 329l-139 -225 q-20 -31 -20 -55q0 -10 4 -20q12 -30 61 -29h45v-201h-566z" />
<glyph unicode="Y" horiz-adv-x="1390" d="M20 1219v215h633v-215h-145l246 -412h4l166 276q25 42 25 72q0 15 -7 27q-18 37 -86 37h-47v215h561v-215h-29q-41 0 -81 -56l-363 -585v-310q0 -18 19.5 -39.5t37.5 -21.5h82v-207h-667v207h80q20 0 38.5 21.5t18.5 39.5v299l-381 607q-29 45 -64 45h-41z" />
<glyph unicode="Z" horiz-adv-x="1167" d="M20 0v256l709 938v8h-397l-35 -198h-229v430h1079v-265l-709 -938v-8h432l35 230h242v-453h-1127z" />
<glyph unicode="[" horiz-adv-x="559" d="M39 -100v1618h500v-215h-191v-1197h191v-206h-500z" />
<glyph unicode="\" horiz-adv-x="708" d="M-8 1518h237l496 -1618h-238z" />
<glyph unicode="]" horiz-adv-x="559" d="M20 -100v206h191v1197h-191v215h500v-1618h-500z" />
<glyph unicode="^" horiz-adv-x="815" d="M20 926v104l259 404h256l260 -404v-104h-213l-172 235h-7l-170 -235h-213z" />
<glyph unicode="_" horiz-adv-x="780" d="M-4 -139h788v-193h-788v193z" />
<glyph unicode="`" horiz-adv-x="819" d="M125 1325v109h348l53 -287h-198z" />
<glyph unicode="a" horiz-adv-x="1130" d="M18 303q0 170 114 254t308 84q117 0 211 -20v88q0 72 -41 104.5t-129 32.5q-129 0 -231 -86h-158v258q193 78 471 78q231 0 342 -82t111 -266v-490q0 -16 16.5 -33.5t32.5 -17.5h49v-174q-82 -49 -215 -49q-182 0 -227 133q-109 -129 -312 -129q-152 0 -247 82t-95 233z M502 197q82 0 149 57v197q-57 12 -127 12q-158 0 -158 -132q0 -134 136 -134z" />
<glyph unicode="b" horiz-adv-x="1193" d="M-49 1219v215h426q55 0 55 -78v-416q145 156 336 156q172 0 286.5 -127t114.5 -408q0 -291 -130.5 -434t-329.5 -143q-205 0 -314 127q-25 -47 -53.5 -79t-46.5 -32h-225v1165q0 16 -17.5 35t-34.5 19h-67zM432 244q64 -47 154 -47q215 0 215 331q0 172 -57.5 239 t-153.5 67q-68 0 -158 -33v-557z" />
<glyph unicode="c" horiz-adv-x="1042" d="M23 535q0 262 158.5 411.5t432.5 149.5q242 0 373 -56v-280h-205q-29 55 -64.5 79.5t-103.5 24.5q-219 0 -219 -332q0 -174 53.5 -250.5t167.5 -76.5q127 0 207 104h166v-229q-154 -96 -385 -96q-289 0 -435 143t-146 408z" />
<glyph unicode="d" horiz-adv-x="1269" d="M23 532q0 145 39.5 258t105 177.5t143.5 96.5t164 32q184 0 299 -140v263h-123v215h430q57 0 58 -78v-1096q0 -16 17.5 -34.5t33.5 -18.5h63v-207h-411q-43 0 -60 111q-110 -129 -313 -129q-197 0 -321.5 131t-124.5 419zM393 532q0 -329 207 -329q92 0 174 63v543 q-86 33 -153 33q-227 0 -228 -310z" />
<glyph unicode="e" horiz-adv-x="1116" d="M23 532q0 258 152.5 411t408.5 153q258 0 384 -131t126 -408q0 -25 -2 -57.5t-2 -34.5h-699q10 -135 68.5 -197.5t171.5 -62.5q84 0 132 25.5t91 78.5h199v-223q-170 -102 -457 -102t-430 144t-143 404zM395 653h348q-8 123 -44.5 176.5t-114.5 53.5q-82 0 -128.5 -54.5 t-60.5 -175.5z" />
<glyph unicode="f" horiz-adv-x="700" d="M10 858v219h117v68q0 313 367 313q109 0 196 -31v-196h-63q-74 0 -104.5 -19.5t-30.5 -81.5v-53h186v-219h-186v-600q0 -16 17 -33.5t34 -17.5h84v-207h-611v207h62q16 0 32.5 17.5t16.5 33.5v600h-117z" />
<glyph unicode="g" horiz-adv-x="1097" d="M178 109q-92 49 -92 155q0 125 129 207q-149 87 -149 268v2q0 164 124.5 259.5t337.5 95.5q90 0 168 -19h379v-219h-53q-14 0 -28.5 -10t-16.5 -23q12 -37 12 -84q0 -162 -123 -253t-338 -91q-111 0 -196 25q-4 -25 -4 -45q0 -68 80 -68h331q174 0 256 -65.5t82 -208.5 q0 -186 -144.5 -293t-453.5 -107q-493 0 -493 247q0 153 192 227zM285 -39q0 -66 44.5 -94.5t157.5 -28.5q123 0 194 30t71 81q0 71 -116 71h-3h-342q-6 -20 -6 -59zM391 741q0 -168 139 -168q63 0 100.5 42t37.5 126q0 164 -138 164q-139 0 -139 -164z" />
<glyph unicode="h" horiz-adv-x="1277" d="M10 1219v215h426q57 0 58 -78v-418q164 158 391 158q279 0 278 -265v-573q0 -16 17.5 -33.5t33.5 -17.5h48v-207h-564v207h101v491q0 70 -31 95.5t-106 25.5q-70 0 -168 -26v-586h104v-207h-582v207h64q16 0 32.5 17.5t16.5 33.5v909q0 16 -16.5 34t-32.5 18h-70z" />
<glyph unicode="i" horiz-adv-x="630" d="M10 858v219h434q55 0 56 -108v-711q0 -16 16 -33.5t35 -17.5h65v-207h-600v207h68q16 0 32.5 17.5t16.5 33.5v547q0 16 -16.5 34.5t-32.5 18.5h-74zM131 1317q0 76 52.5 125t130 49t130 -49t52.5 -125t-52.5 -125t-130 -49t-130 49t-52.5 125z" />
<glyph unicode="j" horiz-adv-x="579" d="M-68 -137h64q76 0 106.5 28.5t30.5 96.5v817q0 16 -16.5 34.5t-32.5 18.5h-74v219h434q55 0 56 -108v-1000q0 -172 -93.5 -243.5t-279.5 -71.5q-106 0 -195 24v185zM131 1317q0 76 52.5 125t130 49t130 -49t52.5 -125t-52.5 -125t-130 -49t-130 49t-52.5 125z" />
<glyph unicode="k" horiz-adv-x="1224" d="M10 1219v215h426q57 0 58 -78v-774l215 200q31 29 25.5 55.5t-40.5 26.5h-39v213h545v-219h-49q-43 0 -76 -33l-207 -192l246 -371q35 -55 72 -55h22v-207h-454v184l-156 238l-104 -92v-123h98v-207h-576v207h62q16 0 33.5 17.5t17.5 33.5v907q0 16 -17.5 35t-33.5 19 h-68z" />
<glyph unicode="l" horiz-adv-x="643" d="M10 1219v215h434q57 0 58 -78v-1098q0 -16 17.5 -33.5t33.5 -17.5h74v-207h-611v207h70q16 0 33.5 17.5t17.5 33.5v907q0 16 -17.5 35t-33.5 19h-76z" />
<glyph unicode="m" horiz-adv-x="1896" d="M10 858v219h412q59 0 70 -147q174 166 374 166q219 0 262 -174q178 174 383 174q121 0 198 -61.5t77 -203.5v-573q0 -16 16.5 -33.5t34.5 -17.5h45v-207h-553v207h90v498q0 70 -23.5 92t-95 22t-159.5 -24v-588h92v-207h-549v207h92v498q0 70 -24.5 92t-96.5 22 q-70 0 -161 -24v-588h94v-207h-572v207h64q16 0 33.5 17.5t17.5 33.5v547q0 16 -17.5 34.5t-33.5 18.5h-70z" />
<glyph unicode="n" horiz-adv-x="1277" d="M10 858v219h412q59 0 70 -143q162 162 393 162q279 0 278 -265v-573q0 -16 17.5 -33.5t33.5 -17.5h48v-207h-564v207h103v491q0 70 -31 95.5t-106 25.5q-68 0 -170 -26v-586h104v-207h-582v207h64q16 0 33.5 17.5t17.5 33.5v547q0 16 -17.5 34.5t-33.5 18.5h-70z" />
<glyph unicode="o" horiz-adv-x="1212" d="M23 532q0 254 165.5 409t419.5 155q252 0 417 -155t165 -409q0 -252 -164 -400t-418 -148q-256 0 -420.5 148.5t-164.5 399.5zM393 530q0 -160 58.5 -241.5t156.5 -81.5q96 0 154.5 82t58.5 241q0 162 -58 245t-155 83q-98 0 -156.5 -83t-58.5 -245z" />
<glyph unicode="p" horiz-adv-x="1241" d="M10 858v219h412q55 0 67 -127q139 145 324 146q172 0 288 -128t116 -401q0 -279 -133.5 -411.5t-329.5 -132.5q-160 0 -260 73v-235h118v-193h-596v193h64q16 0 33.5 17.5t17.5 33.5v893q0 16 -17.5 34.5t-33.5 18.5h-70zM494 262q57 -35 139 -35q215 0 215 308 q0 299 -213 299q-53 0 -141 -27v-545z" />
<glyph unicode="q" horiz-adv-x="1193" d="M23 543q0 276 132 414.5t316 138.5q188 0 307 -140q18 63 50 92t63 29h233v-1165q0 -16 17.5 -33.5t34.5 -17.5h67v-193h-602v193h119v258q-117 -96 -295 -96q-188 0 -315 120.5t-127 399.5zM393 539q0 -178 56.5 -243t150.5 -65q90 0 160 43v539q-76 27 -139 27 q-227 0 -228 -301z" />
<glyph unicode="r" horiz-adv-x="872" d="M10 858v219h412q59 0 70 -151q61 78 126.5 121t161.5 43q27 0 66 -13v-270h-49q-184 0 -303 -49v-551h135v-207h-613v207h64q16 0 33.5 17.5t17.5 33.5v547q0 16 -17.5 34.5t-33.5 18.5h-70z" />
<glyph unicode="s" horiz-adv-x="946" d="M23 43v266h198q20 -51 77.5 -79.5t127.5 -28.5q72 0 114 25.5t42 72.5q0 49 -40 71.5t-159 37.5q-184 25 -269 100.5t-85 236.5q0 170 121.5 259.5t341.5 89.5q236 0 393 -52v-256h-195q-57 90 -194 91q-150 0 -150 -89q0 -41 40 -63.5t155 -38.5q209 -27 296 -97.5 t87 -238.5q-1 -364 -486 -364q-231 0 -415 57z" />
<glyph unicode="t" horiz-adv-x="708" d="M10 858v219h117v285h365v-285h200v-219h-200v-522q0 -78 30.5 -103.5t112.5 -25.5h57v-197q-99 -28 -205 -28q-178 0 -269 66.5t-91 234.5v575h-117z" />
<glyph unicode="u" horiz-adv-x="1277" d="M10 858v219h473v-704q0 -74 35 -101.5t109 -27.5q57 0 159 32v582h-127v219h494v-817q0 -16 16.5 -34.5t32.5 -18.5h60v-207h-402q-57 0 -69 139q-160 -155 -385 -155q-127 0 -208 60t-81 202v561q0 16 -16.5 33.5t-32.5 17.5h-58z" />
<glyph unicode="v" horiz-adv-x="1218" d="M10 858v219h570v-219h-121l182 -512h4l146 397q16 35 16 61q1 12 -3 22q-10 32 -65 32h-26v219h489v-219h-28q-53 0 -78 -63l-336 -795h-322l-332 807q-18 51 -61 51h-35z" />
<glyph unicode="w" horiz-adv-x="1701" d="M10 858v219h522v-219h-88l119 -442h4l187 661h268l186 -661h4l91 327q9 32 9 55q0 19 -6 32q-14 28 -65 28h-24v219h469v-219h-27q-25 0 -47.5 -17.5t-30.5 -45.5l-238 -795h-313l-184 623h-4l-189 -623h-313l-236 807q-20 51 -63 51h-31z" />
<glyph unicode="x" horiz-adv-x="1173" d="M10 858v219h580v-213h-98l157 -190l92 114q23 27 16 51.5t-42 24.5h-25v213h455v-219h-19q-41 0 -75 -45l-230 -274l236 -281q47 -51 80 -51h16v-207h-571v201h102l-166 198l-82 -104q-22 -32 -22 -55q0 -6 2 -12q8 -26 47 -27h16v-201h-463v207h17q43 0 84 45l231 280 l-231 275q-47 51 -74 51h-33z" />
<glyph unicode="y" horiz-adv-x="1222" d="M10 858v219h565v-219h-126l192 -465h4l143 350q15 38 15 63q0 52 -64 52h-26v219h493v-219h-39q-45 0 -73 -63l-320 -701q-137 -293 -325 -426h-287v187q176 49 287 163l-345 789q-23 51 -61 51h-33z" />
<glyph unicode="z" horiz-adv-x="1024" d="M20 0v229l562 625h-297l-35 -158h-203v381h952v-235l-563 -623h316l26 156h213v-375h-971z" />
<glyph unicode="{" horiz-adv-x="684" d="M20 612v213h41q57 0 86 33t29 80v309q0 129 78 200t231 71h179v-215h-119q-20 0 -39 -20.5t-19 -39.5v-297q0 -174 -196 -223v-6q197 -49 196 -223v-326q0 -18 19.5 -40t38.5 -22h119v-206h-181q-154 0 -230.5 70.5t-76.5 203.5v326q0 47 -28.5 79.5t-86.5 32.5h-41z" />
<glyph unicode="|" horiz-adv-x="331" d="M53 -100v1618h226v-1618h-226z" />
<glyph unicode="}" horiz-adv-x="684" d="M20 -100v206h119q20 0 40 22t20 40v309q0 174 194 223v7q-195 49 -194 221v315q0 18 -19.5 39t-40.5 21h-119v215h181q154 0 230.5 -71t76.5 -204v-319q0 -47 28.5 -80t86.5 -33h41v-213h-41q-57 0 -86 -33t-29 -80v-315q0 -129 -78 -199.5t-231 -70.5h-179z" />
<glyph unicode="~" horiz-adv-x="743" d="M20 438v178q70 139 209 140q55 0 144.5 -23.5t111.5 -23.5q51 0 78 55h162v-180q-70 -139 -211 -140q-53 0 -143 26t-113 26q-51 0 -76 -58h-162z" />
<glyph unicode="&#xa1;" horiz-adv-x="456" d="M39 74l100 786h176l101 -786v-213h-377v213zM41 1128q0 74 54.5 126.5t129.5 52.5q80 0 134.5 -51.5t54.5 -127.5q0 -78 -54.5 -130t-134.5 -52q-76 0 -130 53.5t-54 128.5z" />
<glyph unicode="&#xa2;" horiz-adv-x="1040" d="M20 535q0 229 121 372.5t338 177.5v140h221v-131q178 -8 285 -54v-284h-199q-53 109 -174 108q-219 0 -219 -332q0 -174 53.5 -250.5t167.5 -76.5q129 0 215 110h158v-233q-129 -78 -287 -92v-199h-221v201q-227 27 -343 167t-116 376z" />
<glyph unicode="&#xa3;" horiz-adv-x="1064" d="M20 0v207q78 16 125.5 71.5t47.5 147.5q0 80 -27 186h-143v209h83q-35 129 -34 215q0 203 142 309.5t378 106.5q219 0 428 -76v-327h-203q-33 68 -75 103.5t-119 35.5q-74 0 -118 -43t-46 -127q0 -45 18 -197h307v-209h-288q12 -195 -15 -305q131 -29 301 -28l27 135h238 v-414h-109q-393 0 -596 90q-55 -47 -152 -90h-170z" />
<glyph unicode="&#xa5;" horiz-adv-x="1263" d="M20 1219v215h592v-215h-118l192 -359h6l121 225q33 66 15.5 100t-78.5 34h-33v215h528v-215h-31q-47 0 -79 -56l-215 -362h249v-160h-344v-106h344v-162h-344v-105q0 -18 19.5 -39.5t40.5 -21.5h82v-207h-670v207h82q20 0 38.5 21.5t18.5 39.5v105h-342v162h342v106h-342 v160h244l-229 373q-27 45 -62 45h-27z" />
<glyph unicode="&#xa6;" horiz-adv-x="331" d="M53 -100v731h228l-2 -731h-226zM53 799v719h226l2 -719h-228z" />
<glyph unicode="&#xa7;" horiz-adv-x="1114" d="M27 563q0 197 194 279q-96 84 -96 245q0 168 122 266.5t335 98.5q238 0 385 -57v-262h-217q-20 55 -58.5 81.5t-111.5 26.5q-147 0 -148 -104q0 -53 43 -82t174 -62q238 -59 338 -134t100 -236q0 -201 -202 -279q106 -84 106 -242q0 -174 -120.5 -275t-364.5 -101 q-211 0 -404 65v279h220q43 -131 184 -131q156 0 156 114q0 57 -45.5 83t-202.5 69q-205 55 -296 133t-91 225zM311 641q0 -51 43 -83t172 -66q156 -46 181 -56q80 39 79 111q0 57 -51 92t-176 66q-82 20 -166 45q-82 -29 -82 -109z" />
<glyph unicode="&#xa8;" horiz-adv-x="819" d="M37 1308.5q0 69.5 48 115.5t119.5 46t121 -46t49.5 -115.5t-49.5 -115.5t-121 -46t-119.5 46t-48 115.5zM444 1308.5q0 69.5 48.5 115.5t120 46t120.5 -46t49 -115.5t-49 -115.5t-120.5 -46t-120 46t-48.5 115.5z" />
<glyph unicode="&#xa9;" horiz-adv-x="1544" d="M45 717q0 342 210 537.5t517 195.5t517 -195.5t210 -537.5t-210 -537.5t-517 -195.5t-517 195.5t-210 537.5zM141 717q0 -305 177.5 -479.5t454 -174.5t453.5 174.5t177 479.5t-177 479t-453.5 174t-454 -174t-177.5 -479zM375 710.5q0 196.5 107.5 307t285.5 110.5 q80 0 137 -12h180v-278h-163l-25 112q-31 10 -76 11q-170 0 -170 -240q0 -248 160 -248q90 0 154 82h125v-166q-118 -82 -302 -82q-201 0 -307 103.5t-106 300z" />
<glyph unicode="&#xaa;" horiz-adv-x="960" d="M16 786q0 139 95.5 209t259.5 70q86 0 172 -16v75q0 109 -135 109q-111 0 -191 -68h-139v219q164 66 401 66q201 0 293 -69.5t92 -225.5v-397q0 -14 14.5 -28.5t28.5 -14.5h37v-154q-73 -43 -186 -43q-154 0 -197 109q-92 -106 -260 -107q-125 0 -205 68.5t-80 197.5z M324 809q0 -107 106 -107q63 0 113 43v166q-47 10 -97 11q-123 0 -122 -113z" />
<glyph unicode="&#xab;" horiz-adv-x="1017" d="M49 453v157l289 373h186v-104l-190 -340v-7l190 -342v-108h-186zM494 453v157l286 373h189v-104l-191 -340v-7l191 -342v-108h-189z" />
<glyph unicode="&#xad;" horiz-adv-x="585" d="M45 485v254h496v-254h-496z" />
<glyph unicode="&#xae;" horiz-adv-x="790" d="M25 1083q0 168 107.5 267.5t262.5 99.5q154 0 262.5 -99.5t108.5 -267.5t-108.5 -267t-262 -99t-262 99t-108.5 267zM104 1083.5q0 -141.5 82 -220.5t209 -79t209 79t82 220.5t-82 220t-209 78.5t-209 -78.5t-82 -220zM223 909v64h17q14 0 14 16v199q0 14 -14 14h-17v66 h178q156 0 156 -103q0 -61 -70 -82v-2q27 -4 41.5 -19t24.5 -50l6 -27q2 -12 12 -12h13v-64h-133l-13 99q-8 41 -45 41h-18v-76h35v-64h-187zM371 1110h22q45 0 45 47q0 41 -45 41h-22v-88z" />
<glyph unicode="&#xaf;" horiz-adv-x="819" d="M129 1188v215h561v-215h-561z" />
<glyph unicode="&#xb0;" horiz-adv-x="710" d="M45 1151q0 131 90 213t219 82t219.5 -82t90.5 -213t-90.5 -214t-219.5 -83t-219 83t-90 214zM203 1151q0 -74 42 -119t109.5 -45t111.5 45t44 119t-44 119t-111.5 45t-109.5 -45t-42 -119z" />
<glyph unicode="&#xb2;" horiz-adv-x="659" d="M20 635v94q0 100 49.5 170t139.5 131q14 10 46 31.5t45 32t32.5 28t27 32.5t7.5 34q0 78 -82 78q-76 0 -111 -72h-137v209q125 43 285 43q147 0 233 -60.5t86 -175.5q0 -51 -15.5 -92t-51 -72.5t-61.5 -50t-75 -45.5q-164 -86 -180 -133h193l14 57h162v-239h-607z" />
<glyph unicode="&#xb3;" horiz-adv-x="653" d="M12 664v188h138q43 -68 112 -68q43 0 71.5 22.5t28.5 67.5q0 84 -110 84h-74v150h70q111 0 110 82q0 80 -84 80q-70 0 -108 -60h-131v193q125 43 274 43q309 0 309 -211q0 -154 -169 -191v-6q184 -23 184 -182q0 -111 -93 -173t-261 -62q-160 0 -267 43z" />
<glyph unicode="&#xb4;" horiz-adv-x="819" d="M293 1147l53 287h346v-109l-200 -178h-199z" />
<glyph unicode="&#xb6;" horiz-adv-x="1142" d="M23 1024q0 410 520 410h579v-215h-69q-20 0 -39 -20.5t-19 -39.5v-1345h-196v1403h-127v-1403h-197v800q-453 29 -452 410z" />
<glyph unicode="&#xb7;" horiz-adv-x="446" d="M37 602q0 76 54 129t132 53t131.5 -53t53.5 -129t-53.5 -127t-131.5 -51t-132 51t-54 127z" />
<glyph unicode="&#xb8;" horiz-adv-x="819" d="M233 -201h84q18 -27 62 -26q49 0 49 39q0 41 -63 41h-48v147h146v-51q170 -6 170 -150q0 -74 -59.5 -115.5t-165.5 -41.5q-92 0 -175 34v123z" />
<glyph unicode="&#xb9;" horiz-adv-x="542" d="M12 1171v168l207 95h199v-625q0 -8 11 -19.5t20 -11.5h79v-143h-508v143h89q10 0 21 11.5t11 19.5v408l-75 -46h-54z" />
<glyph unicode="&#xba;" horiz-adv-x="1024" d="M18 979q0 215 139.5 343t356.5 128q215 0 353.5 -128t138.5 -343q0 -211 -138.5 -336t-353.5 -125q-217 0 -356.5 125t-139.5 336zM344 977q0 -129 46 -196.5t124 -67.5q76 0 121 67.5t45 196.5q0 131 -45 197.5t-121 66.5q-78 0 -124 -66.5t-46 -197.5z" />
<glyph unicode="&#xbb;" horiz-adv-x="1017" d="M49 82v104l191 340v6l-191 342v109h189l286 -371v-157l-286 -373h-189zM494 82v104l190 340v6l-190 342v109h188l287 -371v-157l-287 -373h-188z" />
<glyph unicode="&#xbc;" d="M12 1171v168l207 95h199v-625q0 -8 11 -19.5t20 -11.5h79v-143h-508v143h89q10 0 21 11.5t11 19.5v408l-75 -46h-54zM160 -70l1009 1563h213l-1009 -1563h-213zM797 215v176l344 408h262v-437h84v-147h-84v-39q0 -10 11 -21.5t20 -11.5h53v-143h-440v143h55 q8 0 20.5 12.5t12.5 20.5v39h-338zM958 362h185v222h-4l-181 -215v-7z" />
<glyph unicode="&#xbd;" horiz-adv-x="1581" d="M12 1171v168l207 95h199v-625q0 -8 11 -19.5t20 -11.5h79v-143h-508v143h89q10 0 21 11.5t11 19.5v408l-75 -46h-54zM147 -70l1012 1563h211l-1010 -1563h-213zM942 0v94q0 102 48 171t138 130q12 8 34 23.5t34 24t28.5 20.5t26 21.5t18.5 21.5t13 24.5t4 24.5 q0 76 -82 76q-74 0 -110 -72h-138v211q125 43 287 43q147 0 233.5 -60.5t86.5 -174.5q0 -51 -15.5 -92.5t-52.5 -74t-60.5 -49t-74.5 -47.5q-59 -31 -84 -44t-56.5 -39.5t-39.5 -49.5h192l12 60h162v-242h-604z" />
<glyph unicode="&#xbe;" horiz-adv-x="1507" d="M12 664v188h138q43 -68 112 -68q43 0 71.5 22.5t28.5 67.5q0 84 -110 84h-74v150h70q111 0 110 82q0 80 -84 80q-70 0 -108 -60h-131v193q125 43 274 43q309 0 309 -211q0 -154 -169 -191v-6q184 -23 184 -182q0 -111 -93 -173t-261 -62q-160 0 -267 43zM180 -70 l1010 1563h213l-1012 -1563h-211zM805 215v176l344 408h262v-437h82v-147h-82v-39q0 -10 11.5 -21.5t19.5 -11.5h51v-143h-438v143h55q8 0 19.5 11.5t11.5 21.5v39h-336zM967 362h184v222h-4l-180 -215v-7z" />
<glyph unicode="&#xbf;" horiz-adv-x="921" d="M23 225q0 123 55 197t170 151q70 49 96.5 71t63 59.5t47 73.5t6.5 83h215q23 -123 -3 -209t-116 -180l-23.5 -23.5t-29.5 -30.5t-26.5 -30.5t-28 -37t-20.5 -38t-16 -43t-5 -43.5q0 -61 31.5 -97t88.5 -36q100 0 162 115h209v-295q-194 -72 -397 -72q-229 0 -354 100.5 t-125 284.5zM367 1128q0 74 54 126.5t130 52.5q78 0 132 -51.5t54 -127t-54 -129t-132 -53.5q-76 0 -130 53.5t-54 128.5z" />
<glyph unicode="&#xc0;" horiz-adv-x="1513" d="M16 0v207h39q55 0 78 63l318 889q8 23 -3.5 41.5t-33.5 18.5h-90v215h682l383 -1176q6 -20 26.5 -35.5t38.5 -15.5h43v-207h-668v207h177l-74 233h-465l-16 -49q-33 -88 -19 -136t86 -48h72v-207h-574zM428 1679v109h348l53 -287h-198zM535 637h337l-157 506h-4z" />
<glyph unicode="&#xc1;" horiz-adv-x="1513" d="M16 0v207h39q55 0 78 63l318 889q8 23 -3.5 41.5t-33.5 18.5h-90v215h682l383 -1176q6 -20 26.5 -35.5t38.5 -15.5h43v-207h-668v207h177l-74 233h-465l-16 -49q-33 -88 -19 -136t86 -48h72v-207h-574zM535 637h337l-157 506h-4zM596 1501l53 287h346v-109l-200 -178 h-199z" />
<glyph unicode="&#xc2;" horiz-adv-x="1513" d="M16 0v207h39q55 0 78 63l318 889q8 23 -3.5 41.5t-33.5 18.5h-90v215h682l383 -1176q6 -20 26.5 -35.5t38.5 -15.5h43v-207h-668v207h177l-74 233h-465l-16 -49q-33 -88 -19 -136t86 -48h72v-207h-574zM428 1501v78l145 209h281l141 -209v-78h-145l-145 103l-146 -103 h-131zM535 637h337l-157 506h-4z" />
<glyph unicode="&#xc3;" horiz-adv-x="1513" d="M16 0v207h39q55 0 78 63l318 889q8 23 -3.5 41.5t-33.5 18.5h-90v215h682l383 -1176q6 -20 26.5 -35.5t38.5 -15.5h43v-207h-668v207h177l-74 233h-465l-16 -49q-33 -88 -19 -136t86 -48h72v-207h-574zM369 1503v160q61 123 206 123q51 0 140.5 -24.5t111.5 -24.5 q55 0 78 57h152v-164q-63 -123 -207 -123q-51 0 -140 29t-112 29q-55 0 -76 -62h-153zM535 637h337l-157 506h-4z" />
<glyph unicode="&#xc4;" horiz-adv-x="1513" d="M16 0v207h39q55 0 78 63l318 889q8 23 -3.5 41.5t-33.5 18.5h-90v215h682l383 -1176q6 -20 26.5 -35.5t38.5 -15.5h43v-207h-668v207h177l-74 233h-465l-16 -49q-33 -88 -19 -136t86 -48h72v-207h-574zM340 1663q0 70 48 116t120 46t121 -46t49 -116t-49 -116t-121 -46 t-120 46t-48 116zM535 637h337l-157 506h-4zM748 1663q0 70 48 116t119.5 46t120.5 -46t49 -116t-49 -116t-120.5 -46t-119.5 46t-48 116z" />
<glyph unicode="&#xc5;" horiz-adv-x="1513" d="M16 0v207h39q55 0 78 63l318 889q8 23 -3.5 41.5t-33.5 18.5h-90v215h682l383 -1176q6 -20 26.5 -35.5t38.5 -15.5h43v-207h-668v207h177l-74 233h-465l-16 -49q-33 -88 -19 -136t86 -48h72v-207h-574zM508 1714q0 92 64.5 150.5t154.5 58.5t154.5 -58.5t64.5 -150.5 q0 -94 -64.5 -151.5t-154.5 -57.5t-154.5 57.5t-64.5 151.5zM535 637h337l-157 506h-4zM629 1714q0 -47 26.5 -75.5t71.5 -28.5t72.5 28.5t27.5 75.5q0 49 -27.5 77t-72.5 28t-71.5 -28t-26.5 -77z" />
<glyph unicode="&#xc6;" horiz-adv-x="2023" d="M16 0v207h43q45 0 80 63l482 889q10 20 -1.5 40t-33.5 20h-90v215h1484v-426h-229l-37 194h-387v-364h184l15 125h211v-469h-211l-15 127h-184v-398h399l33 230h242v-453h-1190v207h127v233h-430l-29 -49q-47 -84 -27.5 -134t93.5 -50h65v-207h-594zM612 637h326v565h-18 z" />
<glyph unicode="&#xc7;" horiz-adv-x="1300" d="M29 709q0 354 188.5 548.5t517.5 194.5q137 0 244 -18h276v-486h-254l-38 223q-72 27 -179 27q-158 0 -250 -114.5t-92 -358.5q0 -492 330 -492q182 0 309 160h187v-260q-211 -150 -518 -151v-33q170 -6 170 -150q0 -74 -60 -115.5t-166 -41.5q-92 0 -174 34v123h84 q18 -27 62 -26q49 0 49 39q0 41 -64 41h-47v137q-276 37 -425.5 221t-149.5 498z" />
<glyph unicode="&#xc8;" horiz-adv-x="1241" d="M20 0v207h70q20 0 40 21.5t20 39.5v891q0 18 -19.5 39t-40.5 21h-70v215h1178v-426h-229l-35 194h-395v-364h190l16 125h209v-469h-209l-16 127h-190v-398h405l33 226h242v-449h-1199zM348 1679v109h348l54 -287h-199z" />
<glyph unicode="&#xc9;" horiz-adv-x="1241" d="M20 0v207h70q20 0 40 21.5t20 39.5v891q0 18 -19.5 39t-40.5 21h-70v215h1178v-426h-229l-35 194h-395v-364h190l16 125h209v-469h-209l-16 127h-190v-398h405l33 226h242v-449h-1199zM516 1501l53 287h346v-109l-200 -178h-199z" />
<glyph unicode="&#xca;" horiz-adv-x="1241" d="M20 0v207h70q20 0 40 21.5t20 39.5v891q0 18 -19.5 39t-40.5 21h-70v215h1178v-426h-229l-35 194h-395v-364h190l16 125h209v-469h-209l-16 127h-190v-398h405l33 226h242v-449h-1199zM348 1501v78l146 209h280l141 -209v-78h-145l-145 103l-146 -103h-131z" />
<glyph unicode="&#xcb;" horiz-adv-x="1241" d="M20 0v207h70q20 0 40 21.5t20 39.5v891q0 18 -19.5 39t-40.5 21h-70v215h1178v-426h-229l-35 194h-395v-364h190l16 125h209v-469h-209l-16 127h-190v-398h405l33 226h242v-449h-1199zM260 1663q0 70 48 116t120 46t121 -46t49 -116t-49 -116t-121 -46t-120 46t-48 116z M668 1663q0 70 48 116t119.5 46t121 -46t49.5 -116t-49.5 -116t-121 -46t-119.5 46t-48 116z" />
<glyph unicode="&#xcc;" horiz-adv-x="712" d="M20 0v207h84q18 0 38 21.5t20 39.5v891q0 18 -18.5 39t-39.5 21h-84v215h674v-215h-86q-18 0 -36.5 -20.5t-18.5 -39.5v-891q0 -18 18.5 -39.5t36.5 -21.5h86v-207h-674zM74 1679v109h348l53 -287h-199z" />
<glyph unicode="&#xcd;" horiz-adv-x="712" d="M20 0v207h84q18 0 38 21.5t20 39.5v891q0 18 -18.5 39t-39.5 21h-84v215h674v-215h-86q-18 0 -36.5 -20.5t-18.5 -39.5v-891q0 -18 18.5 -39.5t36.5 -21.5h86v-207h-674zM242 1501l53 287h346v-109l-201 -178h-198z" />
<glyph unicode="&#xce;" horiz-adv-x="712" d="M20 0v207h84q18 0 38 21.5t20 39.5v891q0 18 -18.5 39t-39.5 21h-84v215h674v-215h-86q-18 0 -36.5 -20.5t-18.5 -39.5v-891q0 -18 18.5 -39.5t36.5 -21.5h86v-207h-674zM74 1501v78l145 209h281l141 -209v-78h-145l-146 103l-145 -103h-131z" />
<glyph unicode="&#xcf;" horiz-adv-x="712" d="M-14 1663q0 70 48 116t119.5 46t121 -46t49.5 -116t-49.5 -116t-121 -46t-119.5 46t-48 116zM20 0v207h84q18 0 38 21.5t20 39.5v891q0 18 -18.5 39t-39.5 21h-84v215h674v-215h-86q-18 0 -36.5 -20.5t-18.5 -39.5v-891q0 -18 18.5 -39.5t36.5 -21.5h86v-207h-674z M393 1663q0 70 48 116t120 46t121 -46t49 -116t-49 -116t-121 -46t-120 46t-48 116z" />
<glyph unicode="&#xd0;" horiz-adv-x="1449" d="M20 0v207h70q20 0 40 21.5t20 39.5v338h-130v209h130v344q0 18 -19.5 39t-40.5 21h-70v215h625q387 0 581.5 -173.5t194.5 -535.5q0 -358 -199.5 -541.5t-586.5 -183.5h-615zM539 217h96q195 0 290 121t95 377q0 254 -94.5 371.5t-290.5 117.5h-96v-389h249v-209h-249 v-389z" />
<glyph unicode="&#xd1;" horiz-adv-x="1470" d="M20 0v207h70q20 0 40 21.5t20 39.5v891q0 18 -19.5 39t-40.5 21h-70v215h510l508 -840h6v625h-145v215h551v-215h-66q-20 0 -38.5 -20.5t-18.5 -39.5v-1159h-334l-557 918h-6v-711h150v-207h-560zM403 1503v160q61 123 207 123q51 0 140.5 -24.5t111.5 -24.5q55 0 78 57 h152v-164q-63 -123 -207 -123q-51 0 -140.5 29t-111.5 29q-55 0 -76 -62h-154z" />
<glyph unicode="&#xd2;" d="M29 717q0 342 206.5 538.5t514 196.5t513 -196.5t205.5 -538.5q0 -344 -204.5 -539.5t-514 -195.5t-515 195.5t-205.5 539.5zM430 710.5q0 -235.5 87.5 -359.5t232.5 -124q143 0 231 124t88 360q0 233 -88 356t-231 123q-147 0 -233.5 -122t-86.5 -357.5zM463 1686v108 h348l53 -287h-198z" />
<glyph unicode="&#xd3;" d="M29 717q0 342 206.5 538.5t514 196.5t513 -196.5t205.5 -538.5q0 -344 -204.5 -539.5t-514 -195.5t-515 195.5t-205.5 539.5zM430 710.5q0 -235.5 87.5 -359.5t232.5 -124q143 0 231 124t88 360q0 233 -88 356t-231 123q-147 0 -233.5 -122t-86.5 -357.5zM631 1507 l53 287h346v-108l-201 -179h-198z" />
<glyph unicode="&#xd4;" d="M29 717q0 342 206.5 538.5t514 196.5t513 -196.5t205.5 -538.5q0 -344 -204.5 -539.5t-514 -195.5t-515 195.5t-205.5 539.5zM430 710.5q0 -235.5 87.5 -359.5t232.5 -124q143 0 231 124t88 360q0 233 -88 356t-231 123q-147 0 -233.5 -122t-86.5 -357.5zM463 1507v78 l145 209h281l141 -209v-78h-145l-146 103l-145 -103h-131z" />
<glyph unicode="&#xd5;" d="M29 717q0 342 206.5 538.5t514 196.5t513 -196.5t205.5 -538.5q0 -344 -204.5 -539.5t-514 -195.5t-515 195.5t-205.5 539.5zM403 1509v160q61 123 207 123q51 0 140.5 -24.5t111.5 -24.5q55 0 78 57h152v-164q-63 -123 -207 -123q-51 0 -140.5 29t-111.5 29 q-55 0 -76 -62h-154zM430 710.5q0 -235.5 87.5 -359.5t232.5 -124q143 0 231 124t88 360q0 233 -88 356t-231 123q-147 0 -233.5 -122t-86.5 -357.5z" />
<glyph unicode="&#xd6;" d="M29 717q0 342 206.5 538.5t514 196.5t513 -196.5t205.5 -538.5q0 -344 -204.5 -539.5t-514 -195.5t-515 195.5t-205.5 539.5zM375 1669q0 70 48 116t119.5 46t121 -46t49.5 -116t-49.5 -116t-121 -46t-119.5 46t-48 116zM430 710.5q0 -235.5 87.5 -359.5t232.5 -124 q143 0 231 124t88 360q0 233 -88 356t-231 123q-147 0 -233.5 -122t-86.5 -357.5zM782 1669q0 70 48.5 116t120 46t120.5 -46t49 -116t-49 -116t-120.5 -46t-120 46t-48.5 116z" />
<glyph unicode="&#xd7;" horiz-adv-x="1064" d="M55 408l293 290l-293 289l187 184l290 -290l293 290l185 -184l-291 -291l291 -286l-183 -187l-292 291l-293 -291z" />
<glyph unicode="&#xd8;" d="M29 717q0 342 206.5 538.5t514.5 196.5q221 0 399 -106l100 131h195l-176 -226q201 -201 200 -534q0 -344 -204.5 -539.5t-513.5 -195.5q-221 0 -392 100l-110 -141h-195l183 233q-207 203 -207 543zM426 711q0 -150 37 -248l495 639q-82 88 -208 88q-147 0 -235.5 -121 t-88.5 -358zM541 313q80 -86 209 -86q145 0 233 123t88 361q0 143 -35 243z" />
<glyph unicode="&#xd9;" horiz-adv-x="1472" d="M20 1219v215h670v-215h-153v-705q0 -158 61 -221.5t188 -63.5q129 0 190.5 63.5t61.5 221.5v705h-151v215h565v-215h-66q-20 0 -38.5 -20.5t-18.5 -39.5v-622q0 -553 -586 -553q-295 0 -446.5 140t-151.5 413v622q0 18 -18 39t-39 21h-68zM504 1679v109h348l53 -287h-198 z" />
<glyph unicode="&#xda;" horiz-adv-x="1472" d="M20 1219v215h670v-215h-153v-705q0 -158 61 -221.5t188 -63.5q129 0 190.5 63.5t61.5 221.5v705h-151v215h565v-215h-66q-20 0 -38.5 -20.5t-18.5 -39.5v-622q0 -553 -586 -553q-295 0 -446.5 140t-151.5 413v622q0 18 -18 39t-39 21h-68zM672 1501l53 287h346v-109 l-201 -178h-198z" />
<glyph unicode="&#xdb;" horiz-adv-x="1472" d="M20 1219v215h670v-215h-153v-705q0 -158 61 -221.5t188 -63.5q129 0 190.5 63.5t61.5 221.5v705h-151v215h565v-215h-66q-20 0 -38.5 -20.5t-18.5 -39.5v-622q0 -553 -586 -553q-295 0 -446.5 140t-151.5 413v622q0 18 -18 39t-39 21h-68zM504 1501v78l145 209h281 l141 -209v-78h-145l-146 103l-145 -103h-131z" />
<glyph unicode="&#xdc;" horiz-adv-x="1472" d="M20 1219v215h670v-215h-153v-705q0 -158 61 -221.5t188 -63.5q129 0 190.5 63.5t61.5 221.5v705h-151v215h565v-215h-66q-20 0 -38.5 -20.5t-18.5 -39.5v-622q0 -553 -586 -553q-295 0 -446.5 140t-151.5 413v622q0 18 -18 39t-39 21h-68zM416 1663q0 70 48 116t119.5 46 t121 -46t49.5 -116t-49.5 -116t-121 -46t-119.5 46t-48 116zM823 1663q0 70 48.5 116t120 46t120.5 -46t49 -116t-49 -116t-120.5 -46t-120 46t-48.5 116z" />
<glyph unicode="&#xdd;" horiz-adv-x="1390" d="M20 1219v215h633v-215h-145l246 -412h4l166 276q37 63 18.5 99.5t-86.5 36.5h-47v215h561v-215h-29q-41 0 -81 -56l-363 -585v-310q0 -18 19.5 -39.5t37.5 -21.5h82v-207h-667v207h80q20 0 38.5 21.5t18.5 39.5v299l-381 607q-29 45 -64 45h-41zM612 1501l54 287h346 v-109l-201 -178h-199z" />
<glyph unicode="&#xde;" horiz-adv-x="1288" d="M20 0v207h70q20 0 40 21.5t20 39.5v891q0 18 -19.5 39t-40.5 21h-70v215h664v-215h-145v-115h180q266 0 406.5 -86t140.5 -295t-146.5 -299t-412.5 -90h-168v-127h157v-207h-676zM539 530h137q193 0 192 185q0 178 -192 178h-137v-363z" />
<glyph unicode="&#xdf;" horiz-adv-x="1345" d="M10 858v219h117q8 160 157.5 268.5t407.5 108.5q233 0 368.5 -74.5t135.5 -232.5q0 -127 -162 -248q-74 -53 -99.5 -78.5t-25.5 -52.5q0 -29 23.5 -46t105.5 -52q152 -59 219.5 -131t67.5 -209q0 -160 -107.5 -252t-306.5 -92q-195 0 -325 49v250h182q35 -92 127 -92 q104 0 104 88q0 43 -36.5 65.5t-149.5 65.5q-109 41 -163 104.5t-54 161.5q0 59 24.5 112.5t45 77t75.5 82.5q53 55 74 88t21 78q0 47 -37 77t-105 30q-102 0 -152 -56.5t-50 -138.5v-1028h-476v207h62q16 0 32.5 17.5t16.5 33.5v600h-117z" />
<glyph unicode="&#xe0;" horiz-adv-x="1130" d="M18 303q0 170 114 254t308 84q117 0 211 -20v88q0 72 -41 104.5t-129 32.5q-129 0 -231 -86h-158v258q193 78 471 78q231 0 342 -82t111 -266v-490q0 -16 16.5 -33.5t32.5 -17.5h49v-174q-82 -49 -215 -49q-182 0 -227 133q-109 -129 -312 -129q-152 0 -247 82t-95 233z M254 1325v109h348l53 -287h-198zM366.5 330q0.5 -133 135.5 -133q82 0 149 57v197q-57 12 -127 12q-158 0 -157.5 -133z" />
<glyph unicode="&#xe1;" horiz-adv-x="1130" d="M18 303q0 170 114 254t308 84q117 0 211 -20v88q0 72 -41 104.5t-129 32.5q-129 0 -231 -86h-158v258q193 78 471 78q231 0 342 -82t111 -266v-490q0 -16 16.5 -33.5t32.5 -17.5h49v-174q-82 -49 -215 -49q-182 0 -227 133q-109 -129 -312 -129q-152 0 -247 82t-95 233z M366.5 330q0.5 -133 135.5 -133q82 0 149 57v197q-57 12 -127 12q-158 0 -157.5 -133zM422 1147l53 287h346v-109l-200 -178h-199z" />
<glyph unicode="&#xe2;" horiz-adv-x="1130" d="M18 303q0 170 114 254t308 84q117 0 211 -20v88q0 72 -41 104.5t-129 32.5q-129 0 -231 -86h-158v258q193 78 471 78q231 0 342 -82t111 -266v-490q0 -16 16.5 -33.5t32.5 -17.5h49v-174q-82 -49 -215 -49q-182 0 -227 133q-109 -129 -312 -129q-152 0 -247 82t-95 233z M254 1147v78l145 209h281l141 -209v-78h-145l-146 102l-145 -102h-131zM366.5 330q0.5 -133 135.5 -133q82 0 149 57v197q-57 12 -127 12q-158 0 -157.5 -133z" />
<glyph unicode="&#xe3;" horiz-adv-x="1130" d="M18 303q0 170 114 254t308 84q117 0 211 -20v88q0 72 -41 104.5t-129 32.5q-129 0 -231 -86h-158v258q193 78 471 78q231 0 342 -82t111 -266v-490q0 -16 16.5 -33.5t32.5 -17.5h49v-174q-82 -49 -215 -49q-182 0 -227 133q-109 -129 -312 -129q-152 0 -247 82t-95 233z M195 1149v160q61 123 206 123q51 0 140.5 -25t111.5 -25q55 0 78 58h152v-164q-63 -123 -207 -123q-51 0 -140.5 28.5t-111.5 28.5q-55 0 -76 -61h-153zM366.5 330q0.5 -133 135.5 -133q82 0 149 57v197q-57 12 -127 12q-158 0 -157.5 -133z" />
<glyph unicode="&#xe4;" horiz-adv-x="1130" d="M18 303q0 170 114 254t308 84q117 0 211 -20v88q0 72 -41 104.5t-129 32.5q-129 0 -231 -86h-158v258q193 78 471 78q231 0 342 -82t111 -266v-490q0 -16 16.5 -33.5t32.5 -17.5h49v-174q-82 -49 -215 -49q-182 0 -227 133q-109 -129 -312 -129q-152 0 -247 82t-95 233z M166 1308.5q0 69.5 48 115.5t120 46t121 -46t49 -115.5t-49 -115.5t-121 -46t-120 46t-48 115.5zM366.5 330q0.5 -133 135.5 -133q82 0 149 57v197q-57 12 -127 12q-158 0 -157.5 -133zM573 1308.5q0 69.5 48.5 115.5t120 46t120.5 -46t49 -115.5t-49 -115.5t-120.5 -46 t-120 46t-48.5 115.5z" />
<glyph unicode="&#xe5;" horiz-adv-x="1130" d="M18 303q0 170 114 254t308 84q117 0 211 -20v88q0 72 -41 104.5t-129 32.5q-129 0 -231 -86h-158v258q193 78 471 78q231 0 342 -82t111 -266v-490q0 -16 16.5 -33.5t32.5 -17.5h49v-174q-82 -49 -215 -49q-182 0 -227 133q-109 -129 -312 -129q-152 0 -247 82t-95 233z M319 1360q0 92 65 150.5t155 58.5t154.5 -58.5t64.5 -150.5q0 -94 -64.5 -151.5t-154.5 -57.5t-155 57.5t-65 151.5zM366.5 330q0.5 -133 135.5 -133q82 0 149 57v197q-57 12 -127 12q-158 0 -157.5 -133zM440 1360q0 -47 27 -76t72 -29t72.5 29t27.5 76q0 49 -27.5 76.5 t-72.5 27.5t-72 -27.5t-27 -76.5z" />
<glyph unicode="&#xe6;" horiz-adv-x="1728" d="M18 303q0 168 122 253t337 85q133 0 174 -6v76q0 72 -41 103.5t-129 31.5q-127 0 -231 -82h-158v254q193 78 457 78q242 0 336 -101q121 100 317 101q252 0 378 -132.5t126 -406.5q0 -25 -2 -59.5t-2 -38.5h-684q8 -131 64.5 -192.5t166.5 -61.5q82 0 129 25.5t88 78.5 h199v-223q-170 -102 -442 -102q-317 0 -461 176q-90 -102 -182.5 -137t-219.5 -35q-152 0 -247 82t-95 233zM366.5 328q0.5 -131 135.5 -131q106 0 186 90q-29 74 -37 168q-25 4 -121 4q-164 0 -163.5 -131zM1018 647h338q-6 127 -42 181.5t-112 54.5q-159 0 -184 -236z" />
<glyph unicode="&#xe7;" horiz-adv-x="1040" d="M20 535q0 262 159 411.5t433 149.5q242 0 373 -56v-280h-205q-29 55 -64.5 79.5t-103.5 24.5q-219 0 -219 -332q0 -174 53.5 -250.5t167.5 -76.5q127 0 207 104h166v-229q-145 -94 -373 -96v-35q170 -6 170 -150q0 -74 -59.5 -115.5t-165.5 -41.5q-92 0 -174 34v123h84 q18 -27 61 -26q49 0 50 39q0 41 -64 41h-47v141q-223 31 -336 169t-113 372z" />
<glyph unicode="&#xe8;" horiz-adv-x="1116" d="M20 532q0 258 152 411t410 153t384 -131t126 -408q0 -25 -2.5 -57.5t-2.5 -34.5h-698q10 -135 68.5 -197.5t171.5 -62.5q84 0 132 25.5t91 78.5h199v-223q-170 -102 -457 -102t-430.5 144t-143.5 404zM293 1325v109h348l53 -287h-198zM393 653h348q-8 123 -45 176.5 t-114 53.5q-82 0 -128.5 -54.5t-60.5 -175.5z" />
<glyph unicode="&#xe9;" horiz-adv-x="1116" d="M20 532q0 258 152 411t410 153t384 -131t126 -408q0 -25 -2.5 -57.5t-2.5 -34.5h-698q10 -135 68.5 -197.5t171.5 -62.5q84 0 132 25.5t91 78.5h199v-223q-170 -102 -457 -102t-430.5 144t-143.5 404zM393 653h348q-8 123 -45 176.5t-114 53.5q-82 0 -128.5 -54.5 t-60.5 -175.5zM461 1147l53 287h346v-109l-201 -178h-198z" />
<glyph unicode="&#xea;" horiz-adv-x="1116" d="M20 532q0 258 152 411t410 153t384 -131t126 -408q0 -25 -2.5 -57.5t-2.5 -34.5h-698q10 -135 68.5 -197.5t171.5 -62.5q84 0 132 25.5t91 78.5h199v-223q-170 -102 -457 -102t-430.5 144t-143.5 404zM293 1147v78l145 209h281l141 -209v-78h-145l-146 102l-145 -102 h-131zM393 653h348q-8 123 -45 176.5t-114 53.5q-82 0 -128.5 -54.5t-60.5 -175.5z" />
<glyph unicode="&#xeb;" horiz-adv-x="1116" d="M20 532q0 258 152 411t410 153t384 -131t126 -408q0 -25 -2.5 -57.5t-2.5 -34.5h-698q10 -135 68.5 -197.5t171.5 -62.5q84 0 132 25.5t91 78.5h199v-223q-170 -102 -457 -102t-430.5 144t-143.5 404zM205 1308.5q0 69.5 48 115.5t119.5 46t121 -46t49.5 -115.5 t-49.5 -115.5t-121 -46t-119.5 46t-48 115.5zM393 653h348q-8 123 -45 176.5t-114 53.5q-82 0 -128.5 -54.5t-60.5 -175.5zM612 1308.5q0 69.5 48.5 115.5t120 46t120.5 -46t49 -115.5t-49 -115.5t-120.5 -46t-120 46t-48.5 115.5z" />
<glyph unicode="&#xec;" horiz-adv-x="630" d="M10 858v219h434q55 0 56 -108v-711q0 -16 16 -33.5t35 -17.5h65v-207h-600v207h68q16 0 32.5 17.5t16.5 33.5v547q0 16 -16.5 34.5t-32.5 18.5h-74zM14 1325v109h348l54 -287h-199z" />
<glyph unicode="&#xed;" horiz-adv-x="630" d="M10 858v219h434q55 0 56 -108v-711q0 -16 16 -33.5t35 -17.5h65v-207h-600v207h68q16 0 32.5 17.5t16.5 33.5v547q0 16 -16.5 34.5t-32.5 18.5h-74zM182 1147l54 287h346v-109l-201 -178h-199z" />
<glyph unicode="&#xee;" horiz-adv-x="630" d="M10 858v219h434q55 0 56 -108v-711q0 -16 16 -33.5t35 -17.5h65v-207h-600v207h68q16 0 32.5 17.5t16.5 33.5v547q0 16 -16.5 34.5t-32.5 18.5h-74zM14 1147v78l146 209h280l142 -209v-78h-146l-145 102l-146 -102h-131z" />
<glyph unicode="&#xef;" horiz-adv-x="630" d="M-74 1308.5q0 69.5 48.5 115.5t120 46t120.5 -46t49 -115.5t-49 -115.5t-120.5 -46t-120 46t-48.5 115.5zM10 858v219h434q55 0 56 -108v-711q0 -16 16 -33.5t35 -17.5h65v-207h-600v207h68q16 0 32.5 17.5t16.5 33.5v547q0 16 -16.5 34.5t-32.5 18.5h-74zM334 1308.5 q0 69.5 48 115.5t119.5 46t121 -46t49.5 -115.5t-49.5 -115.5t-121 -46t-119.5 46t-48 115.5z" />
<glyph unicode="&#xf0;" horiz-adv-x="1212" d="M20 514q0 238 143.5 373t344.5 135q184 0 278 -137q-49 150 -182 233l-67 -57h-177v55l89 76q-12 4 -125 31v211h147q121 -25 199 -54l59 52h176v-56l-82 -69q365 -233 365 -709q0 -315 -159 -464.5t-427 -149.5q-252 0 -417 143t-165 387zM391 508q0 -154 58.5 -229.5 t156.5 -75.5q96 0 154.5 75.5t58.5 229.5t-58.5 232.5t-154.5 78.5q-98 0 -156.5 -78.5t-58.5 -232.5z" />
<glyph unicode="&#xf1;" horiz-adv-x="1277" d="M10 858v219h412q59 0 70 -143q162 162 393 162q279 0 278 -265v-573q0 -16 17.5 -33.5t33.5 -17.5h48v-207h-564v207h103v491q0 70 -31 95.5t-106 25.5q-68 0 -170 -26v-586h104v-207h-582v207h64q16 0 33.5 17.5t17.5 33.5v547q0 16 -17.5 34.5t-33.5 18.5h-70z M297 1149v160q61 123 207 123q51 0 140 -25t112 -25q55 0 78 58h151v-164q-63 -123 -207 -123q-51 0 -140 28.5t-112 28.5q-55 0 -75 -61h-154z" />
<glyph unicode="&#xf2;" horiz-adv-x="1212" d="M20 532q0 254 166 409t420 155q252 0 417 -155t165 -409q0 -252 -164 -400t-418 -148q-256 0 -421 148.5t-165 399.5zM319 1325v109h349l53 -287h-199zM391 530q0 -160 58.5 -241.5t156.5 -81.5q96 0 154.5 82t58.5 241q0 162 -58.5 245t-154.5 83q-98 0 -156.5 -83 t-58.5 -245z" />
<glyph unicode="&#xf3;" horiz-adv-x="1212" d="M20 532q0 254 166 409t420 155q252 0 417 -155t165 -409q0 -252 -164 -400t-418 -148q-256 0 -421 148.5t-165 399.5zM391 530q0 -160 58.5 -241.5t156.5 -81.5q96 0 154.5 82t58.5 241q0 162 -58.5 245t-154.5 83q-98 0 -156.5 -83t-58.5 -245zM487 1147l54 287h346 v-109l-201 -178h-199z" />
<glyph unicode="&#xf4;" horiz-adv-x="1212" d="M20 532q0 254 166 409t420 155q252 0 417 -155t165 -409q0 -252 -164 -400t-418 -148q-256 0 -421 148.5t-165 399.5zM319 1147v78l146 209h280l142 -209v-78h-146l-145 102l-145 -102h-132zM391 530q0 -160 58.5 -241.5t156.5 -81.5q96 0 154.5 82t58.5 241 q0 162 -58.5 245t-154.5 83q-98 0 -156.5 -83t-58.5 -245z" />
<glyph unicode="&#xf5;" horiz-adv-x="1212" d="M20 532q0 254 166 409t420 155q252 0 417 -155t165 -409q0 -252 -164 -400t-418 -148q-256 0 -421 148.5t-165 399.5zM260 1149v160q61 123 207 123q51 0 140 -25t112 -25q55 0 78 58h151v-164q-63 -123 -207 -123q-51 0 -140 28.5t-112 28.5q-55 0 -75 -61h-154z M391 530q0 -160 58.5 -241.5t156.5 -81.5q96 0 154.5 82t58.5 241q0 162 -58.5 245t-154.5 83q-98 0 -156.5 -83t-58.5 -245z" />
<glyph unicode="&#xf6;" horiz-adv-x="1212" d="M20 532q0 254 166 409t420 155q252 0 417 -155t165 -409q0 -252 -164 -400t-418 -148q-256 0 -421 148.5t-165 399.5zM231 1308.5q0 69.5 48.5 115.5t120 46t120.5 -46t49 -115.5t-49 -115.5t-120.5 -46t-120 46t-48.5 115.5zM391 530q0 -160 58.5 -241.5t156.5 -81.5 q96 0 154.5 82t58.5 241q0 162 -58.5 245t-154.5 83q-98 0 -156.5 -83t-58.5 -245zM639 1308.5q0 69.5 48 115.5t120 46t121 -46t49 -115.5t-49 -115.5t-121 -46t-120 46t-48 115.5z" />
<glyph unicode="&#xf7;" horiz-adv-x="1048" d="M27 573v269h995v-269h-995zM340 324q0 76 54.5 129t131.5 53q76 0 130.5 -53.5t54.5 -128.5q0 -74 -54.5 -126.5t-130.5 -52.5q-78 0 -132 52.5t-54 126.5zM340 1087.5q0 75.5 54.5 129t131.5 53.5q76 0 130.5 -53.5t54.5 -129.5q0 -74 -54.5 -126t-130.5 -52 q-78 0 -132 51.5t-54 127z" />
<glyph unicode="&#xf8;" horiz-adv-x="1212" d="M23 532q0 254 165.5 409t419.5 155q170 0 307 -74l82 100h168l-143 -178q168 -152 168 -412q0 -252 -164 -400t-418 -148q-174 0 -305 69l-90 -112h-166l148 184q-172 156 -172 407zM387 530q0 -92 16 -147l342 426q-53 53 -137 53q-100 0 -160.5 -84t-60.5 -248z M467 254q51 -51 141 -51q98 0 158.5 83t60.5 244q0 76 -18 150z" />
<glyph unicode="&#xf9;" horiz-adv-x="1277" d="M10 858v219h473v-704q0 -74 35 -101.5t109 -27.5q57 0 159 32v582h-127v219h494v-817q0 -16 16.5 -34.5t32.5 -18.5h60v-207h-402q-57 0 -69 139q-160 -155 -385 -155q-127 0 -208 60t-81 202v561q0 16 -16.5 33.5t-32.5 17.5h-58zM324 1325v109h348l53 -287h-199z" />
<glyph unicode="&#xfa;" horiz-adv-x="1277" d="M10 858v219h473v-704q0 -74 35 -101.5t109 -27.5q57 0 159 32v582h-127v219h494v-817q0 -16 16.5 -34.5t32.5 -18.5h60v-207h-402q-57 0 -69 139q-160 -155 -385 -155q-127 0 -208 60t-81 202v561q0 16 -16.5 33.5t-32.5 17.5h-58zM492 1147l53 287h346v-109l-201 -178 h-198z" />
<glyph unicode="&#xfb;" horiz-adv-x="1277" d="M10 858v219h473v-704q0 -74 35 -101.5t109 -27.5q57 0 159 32v582h-127v219h494v-817q0 -16 16.5 -34.5t32.5 -18.5h60v-207h-402q-57 0 -69 139q-160 -155 -385 -155q-127 0 -208 60t-81 202v561q0 16 -16.5 33.5t-32.5 17.5h-58zM324 1147v78l145 209h281l141 -209v-78 h-146l-145 102l-145 -102h-131z" />
<glyph unicode="&#xfc;" horiz-adv-x="1277" d="M10 858v219h473v-704q0 -74 35 -101.5t109 -27.5q57 0 159 32v582h-127v219h494v-817q0 -16 16.5 -34.5t32.5 -18.5h60v-207h-402q-57 0 -69 139q-160 -155 -385 -155q-127 0 -208 60t-81 202v561q0 16 -16.5 33.5t-32.5 17.5h-58zM236 1308.5q0 69.5 48 115.5t119.5 46 t120.5 -46t49 -115.5t-49 -115.5t-120.5 -46t-119.5 46t-48 115.5zM643 1308.5q0 69.5 48 115.5t120 46t121 -46t49 -115.5t-49 -115.5t-121 -46t-120 46t-48 115.5z" />
<glyph unicode="&#xfd;" horiz-adv-x="1222" d="M10 858v219h565v-219h-126l192 -465h4l143 350q47 115 -49 115h-26v219h493v-219h-39q-45 0 -73 -63l-320 -701q-137 -293 -325 -426h-287v187q176 49 287 163l-345 789q-23 51 -61 51h-33zM526 1147l54 287h346v-109l-201 -178h-199z" />
<glyph unicode="&#xfe;" horiz-adv-x="1177" d="M-51 1219v215h428q55 0 55 -78v-395q135 135 316 135q172 0 290.5 -128t118.5 -401q0 -279 -136 -411.5t-333 -132.5q-160 0 -256 69v-231h119v-193h-596v193h63q16 0 33 17.5t17 33.5v1253q0 16 -16.5 35t-33.5 19h-69zM432 258q51 -31 133 -31q221 0 221 308 q0 299 -217 299q-49 0 -137 -27v-549z" />
<glyph unicode="&#xff;" horiz-adv-x="1222" d="M10 858v219h565v-219h-126l192 -465h4l143 350q47 115 -49 115h-26v219h493v-219h-39q-45 0 -73 -63l-320 -701q-137 -293 -325 -426h-287v187q176 49 287 163l-345 789q-23 51 -61 51h-33zM270 1308.5q0 69.5 48.5 115.5t120 46t120.5 -46t49 -115.5t-49 -115.5 t-120.5 -46t-120 46t-48.5 115.5zM678 1308.5q0 69.5 48 115.5t120 46t121 -46t49 -115.5t-49 -115.5t-121 -46t-120 46t-48 115.5z" />
<glyph unicode="&#x152;" horiz-adv-x="1980" d="M29 709q0 358 199.5 541.5t586.5 183.5h1120v-426h-229l-35 194h-389v-364h184l17 125h211v-469h-211l-15 127h-186v-398h401l33 230h240v-453h-1153q-385 0 -579.5 174t-194.5 535zM430 717q0 -256 94 -375t291 -119h76v981h-76q-197 0 -291 -116.5t-94 -370.5z" />
<glyph unicode="&#x153;" horiz-adv-x="1892" d="M23 532q0 256 160.5 410t408.5 154q252 0 395 -160q127 160 381 160t378 -131t124 -408q0 -49 -6 -92h-686q10 -135 66 -197.5t169 -62.5q84 0 131 26.5t86 77.5h199v-223q-170 -102 -438 -102q-281 0 -408 151q-141 -151 -391 -151t-409.5 148.5t-159.5 399.5zM393 530 q0 -162 55.5 -242.5t151.5 -80.5t152.5 81t56.5 242.5t-56.5 244.5t-152.5 83t-151.5 -82t-55.5 -246zM1180 653h340q-6 123 -42 176.5t-114 53.5q-80 0 -125 -54.5t-59 -175.5z" />
<glyph unicode="&#x178;" horiz-adv-x="1390" d="M20 1219v215h633v-215h-145l246 -412h4l166 276q37 63 18.5 99.5t-86.5 36.5h-47v215h561v-215h-29q-41 0 -81 -56l-363 -585v-310q0 -18 19.5 -39.5t37.5 -21.5h82v-207h-667v207h80q20 0 38.5 21.5t18.5 39.5v299l-381 607q-29 45 -64 45h-41zM356 1630.5 q0 69.5 48.5 115.5t120 46t120.5 -46t49 -115.5t-49 -116t-120.5 -46.5t-120 46.5t-48.5 116zM764 1630.5q0 69.5 48 115.5t120 46t121 -46t49 -115.5t-49 -116t-121 -46.5t-120 46.5t-48 116z" />
<glyph unicode="&#x2c6;" horiz-adv-x="819" d="M125 1147v78l145 209h281l141 -209v-78h-145l-146 102l-145 -102h-131z" />
<glyph unicode="&#x2dc;" horiz-adv-x="819" d="M66 1149v160q61 123 206 123q51 0 140.5 -25t111.5 -25q55 0 78 58h152v-164q-63 -123 -207 -123q-51 0 -140.5 28.5t-111.5 28.5q-55 0 -76 -61h-153z" />
<glyph unicode="&#x2000;" horiz-adv-x="961" />
<glyph unicode="&#x2001;" horiz-adv-x="1923" />
<glyph unicode="&#x2002;" horiz-adv-x="961" />
<glyph unicode="&#x2003;" horiz-adv-x="1923" />
<glyph unicode="&#x2004;" horiz-adv-x="641" />
<glyph unicode="&#x2005;" horiz-adv-x="480" />
<glyph unicode="&#x2006;" horiz-adv-x="320" />
<glyph unicode="&#x2007;" horiz-adv-x="320" />
<glyph unicode="&#x2008;" horiz-adv-x="240" />
<glyph unicode="&#x2009;" horiz-adv-x="384" />
<glyph unicode="&#x200a;" horiz-adv-x="106" />
<glyph unicode="&#x2010;" horiz-adv-x="585" d="M45 485v254h496v-254h-496z" />
<glyph unicode="&#x2011;" horiz-adv-x="585" d="M45 485v254h496v-254h-496z" />
<glyph unicode="&#x2012;" horiz-adv-x="585" d="M45 485v254h496v-254h-496z" />
<glyph unicode="&#x2013;" horiz-adv-x="845" d="M45 457v248h756v-248h-756z" />
<glyph unicode="&#x2014;" horiz-adv-x="1390" d="M45 457v248h1301v-248h-1301z" />
<glyph unicode="&#x2018;" horiz-adv-x="397" d="M18 1096q0 317 359 344v-137q-123 -16 -123 -78q0 -16 7 -24.5t28.5 -20t29.5 -17.5q57 -41 58 -123q0 -66 -48 -107.5t-122 -41.5q-80 0 -134.5 53t-54.5 152z" />
<glyph unicode="&#x2019;" horiz-adv-x="397" d="M20 903v137q125 16 125 76q0 16 -8 25.5t-28.5 19.5t-30.5 19q-57 41 -58 123q0 63 48.5 105t121.5 42q80 0 134.5 -53.5t54.5 -151.5q-1 -315 -359 -342z" />
<glyph unicode="&#x201a;" horiz-adv-x="397" d="M20 -78q125 16 125 76q0 16 -8 25.5t-28.5 19.5t-30.5 18q-57 41 -58 121q0 66 48.5 108t121.5 42q80 0 134.5 -52.5t54.5 -150.5q-1 -317 -359 -344v137z" />
<glyph unicode="&#x201c;" horiz-adv-x="796" d="M18 1096q0 317 359 344v-137q-123 -16 -123 -78q0 -16 7 -24.5t28.5 -20t29.5 -17.5q57 -41 58 -123q0 -66 -48 -107.5t-122 -41.5q-80 0 -134.5 53t-54.5 152zM418 1096q0 315 358 344v-137q-125 -16 -125 -78q0 -16 8.5 -25.5t30 -20t29.5 -16.5q57 -41 57 -123 q0 -66 -48 -107.5t-122 -41.5q-80 0 -134 53t-54 152z" />
<glyph unicode="&#x201d;" horiz-adv-x="796" d="M20 903v137q125 16 125 76q0 16 -8 25.5t-28.5 19.5t-30.5 19q-57 41 -58 123q0 63 48.5 105t121.5 42q80 0 134.5 -53.5t54.5 -151.5q-1 -315 -359 -342zM420 903v137q123 16 123 76q0 16 -8.5 25.5t-28 21t-29.5 17.5q-57 41 -57 123q0 63 48 105t122 42 q80 0 134 -53.5t54 -151.5q0 -315 -358 -342z" />
<glyph unicode="&#x201e;" horiz-adv-x="796" d="M20 -78q125 16 125 76q0 16 -8 25.5t-28.5 19.5t-30.5 18q-57 41 -58 121q0 66 48.5 108t121.5 42q80 0 134.5 -52.5t54.5 -150.5q-1 -317 -359 -344v137zM420 -78q123 16 123 76q0 16 -8.5 25.5t-28 20.5t-29.5 17q-57 41 -57 121q0 66 48 108t122 42q80 0 134 -52.5 t54 -150.5q0 -317 -358 -344v137z" />
<glyph unicode="&#x2022;" horiz-adv-x="688" d="M39 571.5q0 135.5 88 217t217 81.5t216 -81.5t87 -217t-87 -215.5t-216 -80q-131 0 -218 80t-87 215.5z" />
<glyph unicode="&#x2026;" horiz-adv-x="1275" d="M33 166q0 76 53 128t131 52t132 -52t54 -128t-54 -127t-132 -51t-131 51t-53 127zM453 166q0 76 54 128t132 52t131 -52t53 -128t-53 -127t-131 -51t-132 51t-54 127zM874 166q0 76 53.5 128t131.5 52t132 -52t54 -128t-54 -127t-132 -51t-131.5 51t-53.5 127z" />
<glyph unicode="&#x202f;" horiz-adv-x="384" />
<glyph unicode="&#x2039;" horiz-adv-x="581" d="M49 453v157l289 373h192v-104l-190 -340v-7l190 -342v-108h-192z" />
<glyph unicode="&#x203a;" horiz-adv-x="581" d="M49 82v104l191 340v6l-191 342v109h195l286 -371v-157l-286 -373h-195z" />
<glyph unicode="&#x205f;" horiz-adv-x="480" />
<glyph unicode="&#x20ac;" horiz-adv-x="1228" d="M29 489v162h94v105h-94v162h112q49 260 214 397t415 137q268 0 424 -68v-335h-209q-25 74 -69 111.5t-134 37.5q-104 0 -164.5 -65.5t-80.5 -214.5h358l-29 -162h-342v-105h322l-31 -162h-276q23 -135 80 -195.5t163 -60.5q82 0 131.5 32t92.5 91h190v-262 q-198 -112 -436 -112q-254 0 -413 128t-206 379h-112z" />
<glyph unicode="&#x2122;" horiz-adv-x="1427" d="M27 1221v213h557v-213h-111l-14 104h-58v-340q0 -8 8.5 -16t16.5 -8h31v-101h-303v101h28q8 0 16.5 8t8.5 16v340h-57l-13 -104h-110zM612 860v101h25q8 0 16.5 8t8.5 16v320q0 8 -8.5 16t-16.5 8h-25v105h316l78 -289h2l79 289h318v-105h-29q-6 0 -14 -8t-8 -16v-320 q0 -8 8 -16t14 -8h29v-101h-293v101h51v329h-2l-123 -430h-114l-123 430h-2v-329h51v-101h-238z" />
<glyph unicode="&#xe000;" horiz-adv-x="1075" d="M0 0v1075h1075v-1075h-1075z" />
</font>
</defs>
</svg>
